<?xml version="1.0" encoding="utf-8"?>
<!-- Generator: Adobe Illustrator 17.0.0, SVG Export Plug-In . SVG Version: 6.00 Build 0)  -->
<!DOCTYPE svg PUBLIC "-//W3C//DTD SVG 1.1//EN" "http://www.w3.org/Graphics/SVG/1.1/DTD/svg11.dtd">
<svg version="1.1" id="Layer_1" xmlns="http://www.w3.org/2000/svg" xmlns:xlink="http://www.w3.org/1999/xlink" x="0px" y="0px"
	 width="445.055px" height="521.978px" viewBox="0 0 445.055 521.978" enable-background="new 0 0 445.055 521.978"
	 xml:space="preserve">
<g id="OK58ZD_1_">
	<g>
		<path fill="#181818" d="M11.242,255.544c0-81.833,0.027-163.667-0.096-245.5c-0.005-3.424,0.672-4.098,4.096-4.095
			c136.667,0.111,273.333,0.111,410,0c3.424-0.003,4.097,0.671,4.095,4.095c-0.108,164-0.108,328,0,492
			c0.002,3.424-0.671,4.098-4.095,4.095c-136.667-0.111-273.333-0.111-410,0c-3.424,0.003-4.101-0.671-4.096-4.095
			C11.269,419.877,11.242,337.711,11.242,255.544z M14.641,501.687c136.979,0,273.655,0,410.374,0c0-163.982,0-327.555,0-491.285
			c-136.954,0-273.626,0-410.374,0C14.641,174.38,14.641,337.946,14.641,501.687z"/>
		<path fill="#F9F9F9" d="M14.641,501.687c0-163.742,0-327.308,0-491.285c136.748,0,273.419,0,410.374,0
			c0,163.73,0,327.303,0,491.285C288.295,501.687,151.619,501.687,14.641,501.687z M114.192,494.204
			c2.954,0.916,5.907,1.832,8.861,2.748c12.594-0.016,25.188-0.051,37.782-0.044c30.494,0.019,60.988,0.058,91.482,0.089
			c1.57-0.018,3.14-0.037,4.71-0.055c5.108,0.015,10.216,0.03,15.324,0.045c47.987-0.07,95.974-0.076,143.958-0.475
			c1.673-0.014,4.759-3.939,4.763-6.046c0.183-93.81,0.094-187.62,0.037-281.43c0.053-32.448,0.124-64.896,0.153-97.343
			c0.027-30.287,0.081-60.574-0.152-90.859c-0.015-2-2.355-5.711-3.632-5.719c-36.098-0.227-72.197-0.081-108.297,0.005
			c-21.968-0.011-43.935-0.022-65.903-0.033c-0.487-0.102-0.975-0.294-1.462-0.294c-72.656,0.007-145.312-0.007-217.967,0.284
			c-1.557,0.006-4.455,3.532-4.457,5.419c-0.181,142.147-0.134,284.294-0.105,426.441c-0.014,9.631-0.036,19.261-0.041,28.892
			c-0.011,22.231-0.008,22.231,22.192,21.092c21.263-0.045,42.526-0.024,63.788-0.211c2.857-0.025,5.704-1.099,8.556-1.687
			C113.979,494.78,114.116,494.507,114.192,494.204z"/>
		<path d="M243.277,15.086c21.968,0.011,43.935,0.022,65.903,0.033c6.005,3.411,13.208,5.664,17.81,10.429
			c21.787,22.562,43.794,45.032,63.893,69.065c15.584,18.634,21.713,40.875,16.891,65.878c-1.67,8.659,0.5,18.276,2.018,27.269
			c1.36,8.056,6.346,15.974-1.473,23.33c-8.407,14.272-20.053,27.651-24.303,43.069c-4.197,15.228-0.917,32.518-0.917,48.803
			c-5.493,1.612-7.908,0.135-8.861-5.677c-2.526-15.401-5.226-30.82-8.93-45.97c-4.228-17.298-8.933-35.016-22.014-47.862
			c-5.977-5.87-7.272-10.194-5.305-17.913c3.028-11.883-1.7-22.825-10.593-25.858c-13.539-4.618-27.124-4.389-40.174,2.305
			c-7.831,1.861-15.815,3.242-23.466,5.673c-22.961,7.297-32.282,4.741-47.323-13.775c-0.305-0.376-0.747-0.64-1.126-0.957
			c-1.539-0.168-3.544-1.047-4.544-0.392c-8.737,5.722-18.481,10.579-25.573,17.954c-7.123,7.408-13.367,7.875-22.019,4.567
			c-14.486-5.538-30.136-8.539-41.501-20.425c-0.335-0.35-1.622,0.209-2.465,0.344c-1.651,1.519-4.032,2.724-4.843,4.606
			c-8.993,20.873-10.928,42.906-10.228,65.329c-1.496-1.38-3.58-2.479-4.394-4.184c-6.946-14.557-14.169-29.015-20.301-43.918
			c-5.835-14.179-10.459-28.857-16.229-45.039c5.409,2.475,8.787,4.021,14.23,6.512c-2.604-4.54-4.933-6.856-5.169-9.369
			c-0.52-5.54-0.561-11.271,0.304-16.75c0.689-4.364,3.494-8.363,4.46-12.723c0.813-3.671-0.044-7.682,0.496-11.449
			c1.478-10.309,2.738-22.099,13.162-26.506c8.312-3.514,10.733-9.337,13.332-16.175c2.36-6.21,5.866-9.551,13.26-7.823
			c2.385,0.557,6.139-1.114,8.095-2.988c7.918-7.587,17.212-11.241,27.369-7.228c7.824,3.092,14.635,1.426,21.752-0.522
			c5.721-1.565,11.142-4.279,16.893-5.664c4.381-1.055,9.65-2.358,13.518-0.893C218.892,25.487,230.611,17.389,243.277,15.086z
			 M97.303,63.212c-12.158,12.742-17.42,31.954-10.002,36.315C90.528,87.812,93.699,76.298,97.303,63.212z"/>
		<path fill="#8C8C8C" d="M243.277,15.086c-12.665,2.303-24.385,10.401-38.363,5.109c-3.868-1.465-9.138-0.162-13.518,0.893
			c-5.751,1.385-11.172,4.099-16.893,5.664c-7.117,1.947-13.928,3.613-21.752,0.522c-10.157-4.014-19.451-0.36-27.369,7.228
			c-1.956,1.874-5.71,3.546-8.095,2.988c-7.394-1.728-10.9,1.613-13.26,7.823c-2.599,6.838-5.019,12.661-13.332,16.175
			c-10.424,4.407-11.684,16.197-13.162,26.506c-0.54,3.766,0.318,7.778-0.496,11.449c-0.966,4.36-3.771,8.359-4.46,12.723
			c-0.865,5.479-0.824,11.209-0.304,16.75c0.236,2.512,2.565,4.828,5.169,9.369c-5.443-2.491-8.822-4.037-14.23-6.512
			c5.771,16.182,10.395,30.86,16.229,45.039c6.132,14.903,13.355,29.361,20.301,43.918c0.814,1.705,2.898,2.804,4.394,4.184
			c2.654,12.281,4.985,24.644,8.084,36.811c1.848,7.259,5.809,12.379,14.956,10.392c4.102-0.891,8.602,0.05,12.921,0.16
			c0.098,0.247,0.146,0.503,0.144,0.769c-3.145,0.027-6.29,0.031-9.435,0.086c-15.863,0.281-16.032,0.58-8.682,15.005
			c-0.28,0.837-1.059,2.121-0.768,2.446c6.783,7.559,4.13,16.879,5.118,25.583c4.425,38.961,22.047,73.283,38.508,107.991
			c-2.564,0.243-5.127,0.486-7.691,0.729c-7.865-2.552-15.731-5.103-23.596-7.655c-0.172,0.765-0.344,1.531-0.516,2.296
			c-3.979-1.495-7.958-2.989-11.937-4.484c1.459,0.22,2.917,0.44,4.376,0.66c-4.226-3.234-8.772-5.469-13.496-7.225
			c-0.978-0.363-2.619,1.056-3.954,1.653c-4.972,1.656-9.943,3.312-14.915,4.969c-5.933,0-11.867,0-18.977,0
			c1.521,1.191,2.144,1.679,2.767,2.167c-4.758,0.32-9.516,0.64-14.273,0.96c0.098,0.891,0.196,1.782,0.294,2.673
			c4.081-0.261,8.162-0.521,12.244-0.782c-13.039,2.42-25.733,5.439-36.531,14.034c-6.053,4.819-12.965,8.558-19.49,12.784
			c-0.03-142.147-0.077-284.294,0.104-426.441c0.002-1.887,2.9-5.412,4.457-5.419c72.655-0.292,145.311-0.277,217.967-0.284
			C242.302,14.792,242.79,14.984,243.277,15.086z"/>
		<path fill="#8C8C8C" d="M421.108,209.036c0.057,93.81,0.146,187.621-0.037,281.43c-0.004,2.107-3.089,6.033-4.763,6.046
			c-47.984,0.399-95.971,0.405-143.958,0.475c-0.088-0.28-0.141-0.567-0.161-0.861c15.088,0.444,24.499-10.215,34.643-18.614
			c11.153-9.234,16.891-21.287,12.156-36.331c1.158,4.233,2.316,8.465,3.852,14.083c4.105-4.681,7.814-8.911,11.522-13.141
			c13.589-15.461,32.621-27.048,37.586-48.756c5.701-24.925,10.104-50.146,15.19-75.214c0.38-1.872,1.264-4.527,2.667-5.166
			c12.158-5.536,17.928-15.978,20.397-28.017c3.094-15.083,4.791-30.453,7.052-45.705c1.117-7.533,2.359-15.056,3.149-22.625
			c0.593-5.68-2.033-8.932-8.148-8.523C415.963,201.126,418.163,208.68,421.108,209.036z"/>
		<path fill="#E7E7E7" d="M272.19,496.127c0.019,0.293,0.073,0.58,0.161,0.861c-5.108-0.015-10.216-0.03-15.323-0.045
			c-6.492-3.477-12.985-6.954-19.478-10.431c-0.343,0.629-0.686,1.259-1.028,1.888c5.265,2.866,10.53,5.731,15.795,8.597
			c-30.494-0.031-60.988-0.07-91.482-0.089c-12.594-0.008-25.188,0.028-37.782,0.044c-0.138-1.904-0.276-3.808-0.488-6.734
			c-3.296,1.569-5.834,2.777-8.372,3.986c-0.076,0.303-0.213,0.576-0.412,0.818c-10.772-1.22-17.844-6.331-18.449-18.83
			c-2.117,1.428-3.64,2.293-4.978,3.385c-5.782,4.72-26.266,4.399-32.164-0.559c1.299-0.315,2.597-0.63,5.182-1.257
			c-2.948-1.858-4.879-3.075-7.103-4.478c-1.482,3.178-2.776,5.954-4.071,8.73c-7.501,6.142-15.809,5.844-25.388,1.726
			c1.312,3.025,1.984,4.574,2.748,6.337c-2.332,1.934-4.497,3.728-7.064,5.856c6.78,0.353,12.863,0.67,18.945,0.988
			c-22.202,1.141-22.206,1.141-22.194-21.091c0.005-9.631,0.027-19.261,0.041-28.892c6.525-4.226,13.437-7.966,19.49-12.784
			c10.797-8.595,23.492-11.614,36.531-14.034c5.569-0.084,11.138-0.168,16.706-0.252c10.677,0.975,21.353,1.951,32.03,2.926
			c0.106-0.902,0.212-1.804,0.318-2.706c-13.142-1.147-26.285-2.294-39.726-3.466c3.136-0.553,5.877-1.036,8.617-1.52
			c4.972-1.656,9.943-3.312,14.915-4.969c4.358,1.637,8.716,3.275,13.074,4.912c3.979,1.495,7.958,2.989,11.937,4.484
			c0.172-0.765,0.344-1.531,0.516-2.296c7.865,2.552,15.731,5.103,23.596,7.655c5.073,1.58,10.147,3.16,16.267,5.066
			c-1.625-1.77-2.561-2.789-3.497-3.808c1.754-6.63,3.294-13.466,12.472-12.939c-1.174,0.52-2.701,0.737-3.457,1.616
			c-2.25,2.617-5.049,5.262-5.9,8.37c-0.419,1.53,2.62,5.041,4.783,5.881c1.429,0.555,4.083-2.046,6.189-3.234
			c-2.983,9.017,3.546,9.407,9.422,10.388c0.662,1.26,0.997,3.11,2.038,3.687c8.138,4.512,16.412,8.78,24.643,13.124
			c-1.16,0.442-2.32,0.884-4.984,1.9c6.286,4.359,11.237,7.791,16.187,11.224c3.885,2.642,7.77,5.285,11.655,7.927
			c3.405,4.811,6.364,11.106,13.342,4.001c-2.513,4.288-1.013,7.141,2.997,9.544C263.822,490.256,267.953,493.279,272.19,496.127z
			 M33.302,460.177c4.329-2.367,8.658-4.734,12.988-7.102c2.948-1.036,5.897-2.072,8.845-3.108
			c18.746-1.658,37.491-3.316,57.981-5.129c-3.861-0.808-6.161-1.636-8.487-1.718c-12.476-0.442-24.971-1.152-37.434-0.815
			c-5.657,0.153-11.255,2.51-16.88,3.868c-1.422,1.172-2.844,2.345-4.266,3.517c-4.638,2.753-9.276,5.505-13.914,8.258
			c-3.876,2.31-7.752,4.619-11.627,6.929c0.356,0.586,0.712,1.171,1.068,1.757C25.486,464.483,29.394,462.33,33.302,460.177z
			 M63.237,431.992c13.943,0,27.887,0,41.83,0c-0.007-0.999-0.014-1.997-0.021-2.996c-13.621,0-27.242,0-40.863,0
			c-4.769,1.158-9.538,2.317-14.306,3.475c0.195,0.722,0.39,1.445,0.585,2.167C54.72,433.757,58.978,432.875,63.237,431.992z
			 M227.053,473.201c4.247,2.315,8.495,4.631,12.742,6.946c0.353-0.666,0.706-1.332,1.059-1.999
			c-4.206-2.359-8.411-4.717-12.617-7.076c-11.045-6.654-22.09-13.308-33.135-19.962c-5.59-3.548-11.181-7.096-16.771-10.644
			c-0.379,0.633-0.758,1.265-1.138,1.898c5.631,3.66,11.261,7.319,16.892,10.979C205.073,459.962,216.063,466.582,227.053,473.201z
			 M164.873,444.859c11.675,16.191,28.543,23.671,47.379,27.776C196.459,463.376,180.666,454.118,164.873,444.859z M159.405,433.029
			c-6.345-6.881-18.697-8.325-24.006-3.541C142.937,430.6,151.066,431.799,159.405,433.029z M149.453,447.395
			c-3.699-7.249-14.655-10.335-20.349-6.139C135.455,443.172,142.761,445.376,149.453,447.395z"/>
		<path fill="#8C8C8C" d="M421.108,209.036c-2.945-0.356-5.145-7.91-8.851-0.916c-1.313,0.991-2.625,1.981-3.938,2.972
			c7.819-7.356,2.833-15.274,1.473-23.33c-1.518-8.993-3.688-18.61-2.018-27.269c4.822-25.003-1.307-47.244-16.891-65.878
			c-20.1-24.033-42.106-46.503-63.893-69.065c-4.602-4.765-11.805-7.019-17.81-10.429c36.1-0.086,72.199-0.232,108.297-0.005
			c1.277,0.008,3.617,3.72,3.632,5.719c0.233,30.285,0.179,60.572,0.152,90.859C421.233,144.14,421.161,176.588,421.108,209.036z"/>
		<path fill="#8C8C8C" d="M58.19,479.018c5.897,4.958,26.382,5.279,32.164,0.559c1.338-1.092,2.861-1.957,4.978-3.385
			c0.604,12.5,7.677,17.61,18.449,18.83c-2.85,0.588-5.698,1.662-8.555,1.687c-21.262,0.187-42.525,0.167-63.787,0.211
			c-6.082-0.318-12.164-0.635-18.944-0.988c2.567-2.128,4.731-3.922,7.064-5.856c-0.764-1.763-1.436-3.312-2.748-6.337
			c9.579,4.117,17.887,4.415,25.388-1.726C54.196,481.014,56.193,480.016,58.19,479.018z"/>
		<path fill="#A1A1A1" d="M252.317,496.998c-5.265-2.866-10.53-5.731-15.795-8.597c0.343-0.629,0.686-1.259,1.028-1.888
			c6.493,3.477,12.986,6.954,19.478,10.431C255.457,496.961,253.887,496.979,252.317,496.998z"/>
		<path fill="#373737" d="M114.192,494.204c2.538-1.208,5.076-2.417,8.372-3.986c0.212,2.926,0.35,4.83,0.488,6.734
			C120.099,496.036,117.146,495.12,114.192,494.204z"/>
		<path fill="#FEFEFE" d="M182.534,413.205c-9.178-0.527-10.718,6.309-12.472,12.939c-1.693-0.662-3.386-1.324-5.079-1.987
			c-16.461-34.709-34.083-69.03-38.508-107.991c-0.989-8.703,1.665-18.024-5.118-25.583c-0.291-0.324,0.487-1.609,0.768-2.446
			c2.374-0.029,4.748-0.059,7.122-0.088c3.723-0.286,7.447-0.571,12.386-0.95c-2.235,1.524-3.301,2.252-4.368,2.979
			c-2.425,3.262-4.85,6.524-7.871,10.586c10.042,1.756,11.753,0.832,17.657-4.569c1.24-1.135,6.536-0.45,7.224,0.848
			c4.434,8.361,12.221,10.955,21.055,6.229c4.628,0.648,9.256,1.296,13.883,1.945c1.317,0.739,2.633,1.477,3.95,2.216
			c0.823-0.563,1.646-1.127,2.469-1.69c-2.425-4.833-3.649-12.28-7.484-14.042c-15.532-7.136-31.868-12.523-47.907-18.556
			c0.002-0.266-0.046-0.522-0.144-0.77c-6.069-0.423-12.159-0.671-18.193-1.388c-1.523-0.181-2.867-1.862-4.294-2.854
			c1.442-1.005,2.951-2.948,4.315-2.852c6.098,0.43,12.141,1.66,18.239,2.086c1.491,0.104,4.191-1.46,4.513-2.722
			c2.549-10.014,4.462-20.188,6.976-30.212c1.482-5.911,4.64-11.518,5.4-17.472c1.812-14.2-6.099-24.583-14.948-34.535
			c-7.896-8.881-15.285-18.215-22.897-27.349c0.843-0.135,2.13-0.695,2.465-0.344c11.365,11.886,27.015,14.887,41.501,20.425
			c8.652,3.307,14.896,2.841,22.019-4.567c7.092-7.376,16.836-12.232,25.573-17.954c1-0.655,3.005,0.224,4.544,0.392
			c7.404,15.324,11.988,20.033,28.738,19.24c5.359-0.254,7.227,1.171,6.292,6.59c-1.611,9.337-2.435,18.824-4.356,28.089
			c-3.42,16.498-5.636,32.563,7.385,46.4c3.871,4.114,7.53,8.446,11.012,12.893c0.649,0.829-0.006,2.68-0.059,4.059
			c-11.09,4.392-22.268,8.577-33.236,13.253c-6.527,2.782-12.814,6.275-10.688,15.338c0.104,4.641,0.074,9.289,0.339,13.921
			c0.747,13.051,1.932,26.088,2.246,39.148c0.096,3.992-2.071,8.038-3.377,12.681c6.628-2.687,12.242-5.72,18.239-7.18
			c5.847-1.423,12.085-1.237,18.67-1.801c0-1.86,0-5.086,0-9.168c-2.704,1.119-4.718,2.792-6.248,2.428
			c-4.503-1.071-11.945-2.076-12.667-4.662c-3.418-12.237-4.979-24.993-7.178-37.428c5.252-1.325,12.031-3.036,18.811-4.746
			c3.371-2.919,6.588-6.049,10.188-8.65c1.406-1.016,4.428-1.831,5.429-1.062c11.758,9.032,11.566,8.971,22.461-0.618
			c1.414-1.245,4.95-0.08,7.504-0.031c-0.397,1.928-0.128,4.73-1.309,5.631c-4.679,3.568-9.457,7.548-14.874,9.456
			c-5.643,1.988-12.066,1.763-18.191,2.511c20.498,12.338,55.564-3.644,68.664-31.244c0.776-1.66,1.553-3.319,2.329-4.979
			c0.936-0.903,2.417-1.651,2.724-2.733c3.021-10.628,5.997-21.274,8.59-32.011c0.469-1.941-0.138-5.069-1.484-6.376
			c-12.569-12.204-11.548-28.037-11.706-43.422c-0.039-3.813,2.105-7.648,3.246-11.473c1.051,0.17,2.102,0.339,3.152,0.509
			c-0.517,3.988-1.174,7.963-1.511,11.966c-0.337,4.008-1.954,10.514-0.229,11.631c6.864,4.445,10.665,10.322,13.641,17.63
			c5.145,12.638,12.145,24.62,16.263,37.547c3.438,10.795,3.843,22.552,5.642,33.875c0.406,2.556,0.756,5.174,1.611,7.594
			c1.094,3.095,2.006,7.813,4.189,8.625c3.96,1.472,10.071,5.55,12.256-3.242c0.558-2.245,3.187-3.975,5.459-6.639
			c1.501,8.179-2.213,11.742-12.089,15.05c0.161,8.781,0.667,16.714,0.319,24.609c-0.216,4.881-1.672,9.717-2.677,14.552
			c-1.811,8.715-3.222,17.553-5.695,26.08c-2.336,8.053-5.59,15.872-8.891,23.602c-2.011,4.71-4.874,9.056-7.354,13.565
			c-1.017-0.384-2.033-0.769-3.05-1.153c1.428-5.331,3.101-10.612,4.174-16.013c0.495-2.489-0.185-5.211-0.333-7.828
			c-2.141,1.143-4.205,2.476-6.443,3.378c-2.64,1.065-5.431,1.757-9.545,3.045c6.769-17.508,12.903-31.992,17.869-46.867
			c2.139-6.408,1.858-13.624,2.676-20.472c0.346-7.484,0.692-14.968,1.122-24.275c-6.27,6.763-11.989,11.483-15.85,17.413
			c-7.063,10.847-11.819,23.369-19.791,33.401c-7.886,9.922-15.547,18.47-11.889,32.47c1.605,6.141,2.128,13.087,0.996,19.275
			c-1.128,6.168-4.943,11.845-7.58,17.737c-3.97-4.463-7.568-9.358-12.055-13.221c-2.512-2.163-6.476-3.585-9.821-3.654
			c-9.283-0.193-18.667,1.348-27.842,0.46c-4.259-0.412-8.126-4.869-12.17-7.493c3.247-2.495,6.462-5.035,9.765-7.453
			c0.772-0.565,2.127-0.458,2.728-1.109c1.996-2.162,5.51-4.692,5.314-6.788c-0.679-7.246-2.679-14.367-4.177-21.536
			c-1.911,2.521-2.026,4.793-2.41,7.02c-1.065,6.185-2.978,10.049-11.09,9.955c-8.059-0.094-16.156,3.085-24.236,4.828
			c-8.4,9.041-18.372,8.93-29.003,4.98c-1.182,0.081-2.364,0.163-5.911,0.406c5.812,3.018,9.631,5.001,13.829,7.181
			C199.51,407.508,191.314,410.71,182.534,413.205z M144.946,309.375c4.312,6.352,15.278,6.935,21.801,0
			C159,309.375,152.036,309.375,144.946,309.375z"/>
		<path fill="#CBCBCB" d="M264.32,270.199c0.053-1.379,0.709-3.23,0.059-4.059c-3.482-4.447-7.141-8.779-11.012-12.893
			c-13.021-13.837-10.805-29.902-7.385-46.4c1.921-9.265,2.745-18.752,4.356-28.089c0.935-5.419-0.933-6.843-6.292-6.59
			c-16.75,0.793-21.333-3.915-28.738-19.24c0.378,0.316,0.82,0.581,1.126,0.957c15.04,18.516,24.362,21.071,47.323,13.775
			c7.65-2.431,15.634-3.812,23.466-5.673c9.498,0.167,19.052,1.056,28.479,0.316c11.262-0.884,16.882,5.125,13.687,15.811
			c-5.76,19.266-4.516,37.502,8.31,53.987c3.823,4.914-1.421,24.148-7.215,26.768c-1.051,0.475-2.542-0.116-3.818-0.029
			c-9.885,0.672-19.767,1.39-29.65,2.094c0.042,0.87,0.085,1.74,0.127,2.61c7.088,0,14.195,0.325,21.258-0.088
			c7.693-0.449,13.297,3.331,13.03,9.538c-0.776,1.66-1.553,3.319-2.329,4.979c3.351-8.951,0.03-11.733-9.231-12.303
			C301.05,264.514,282.463,264,264.32,270.199z"/>
		<path fill="#CBCBCB" d="M119.206,154.979c7.613,9.134,15.001,18.467,22.897,27.349c8.849,9.952,16.759,20.335,14.948,34.535
			c-0.76,5.954-3.918,11.561-5.4,17.472c-2.513,10.024-4.427,20.199-6.976,30.212c-0.321,1.262-3.021,2.826-4.513,2.722
			c-6.098-0.427-12.141-1.657-18.239-2.086c-1.365-0.096-2.873,1.848-4.315,2.852c1.427,0.992,2.771,2.673,4.294,2.854
			c6.034,0.717,12.124,0.965,18.193,1.388c-4.32-0.109-8.82-1.051-12.921-0.159c-9.148,1.988-13.108-3.132-14.956-10.392
			c-3.098-12.168-5.43-24.531-8.084-36.811c-0.7-22.422,1.235-44.455,10.228-65.329
			C115.174,157.703,117.555,156.498,119.206,154.979z"/>
		<path fill="#F9F9F9" d="M331.431,272.996c0.267-6.207-5.336-9.988-13.03-9.538c-7.064,0.413-14.171,0.088-21.258,0.088
			c-0.042-0.87-0.085-1.74-0.127-2.61c9.883-0.704,19.765-1.422,29.65-2.094c1.275-0.087,2.767,0.505,3.818,0.029
			c5.794-2.621,11.038-21.854,7.215-26.768c-12.826-16.486-14.071-34.722-8.31-53.987c3.195-10.686-2.425-16.695-13.687-15.811
			c-9.427,0.74-18.981-0.148-28.479-0.316c13.05-6.694,26.634-6.922,40.174-2.305c8.892,3.033,13.621,13.975,10.593,25.858
			c-1.967,7.719-0.672,12.043,5.305,17.913c13.081,12.847,17.786,30.564,22.014,47.862c3.703,15.15,6.403,30.569,8.93,45.97
			c0.953,5.812,3.368,7.289,8.861,5.677c0-16.285-3.28-33.574,0.917-48.803c4.249-15.418,15.896-28.797,24.303-43.069
			c1.313-0.991,2.625-1.981,3.938-2.972c6.115-0.409,8.741,2.843,8.148,8.523c-0.79,7.569-2.032,15.092-3.149,22.625
			c-2.262,15.252-3.958,30.622-7.052,45.705c-2.47,12.039-8.239,22.481-20.397,28.017c-1.402,0.639-2.287,3.294-2.667,5.166
			c-5.085,25.068-9.489,50.289-15.19,75.214c-4.965,21.708-23.997,33.295-37.587,48.756c-3.65,3.258-7.3,6.516-10.95,9.774
			c-0.603-2.813-0.227-5.465,1.287-6.598c15.699-11.751,23.149-28.741,29.843-46.238c0.337-0.88,0.043-2.001,0.043-3.871
			c-5.887,4.798-10.87,9.123-16.213,12.945c-0.852,0.61-4.742-0.903-4.809-1.652c-0.608-6.726-1.469-13.498,5.105-18.609
			c2.579-2.005,4.408-5.517,5.569-8.71c6.175-16.983,12.029-34.082,17.994-51.142c-0.818,6.849-0.536,14.065-2.676,20.472
			c-4.966,14.874-11.1,29.359-17.869,46.867c4.114-1.288,6.905-1.98,9.545-3.045c2.238-0.902,4.302-2.236,6.443-3.378
			c0.147,2.616,0.827,5.339,0.333,7.828c-1.073,5.401-2.746,10.683-4.174,16.013c1.017,0.384,2.033,0.769,3.05,1.153
			c2.48-4.509,5.343-8.856,7.354-13.565c3.301-7.73,6.555-15.548,8.891-23.602c2.473-8.527,3.884-17.365,5.695-26.08
			c1.004-4.835,2.461-9.671,2.677-14.552c0.349-7.895-0.158-15.828-0.319-24.609c9.876-3.308,13.591-6.871,12.089-15.05
			c-2.272,2.664-4.901,4.394-5.459,6.639c-2.184,8.793-8.296,4.715-12.256,3.242c-2.183-0.812-3.096-5.529-4.189-8.625
			c-0.855-2.42-1.205-5.037-1.611-7.594c-1.799-11.323-2.203-23.08-5.642-33.875c-4.117-12.927-11.118-24.909-16.263-37.547
			c-2.975-7.308-6.777-13.185-13.641-17.63c-1.725-1.117-0.108-7.623,0.229-11.631c0.337-4.003,0.994-7.978,1.511-11.966
			c-1.051-0.17-2.102-0.339-3.152-0.509c-1.141,3.825-3.285,7.66-3.246,11.473c0.158,15.385-0.863,31.217,11.706,43.422
			c1.346,1.307,1.952,4.435,1.484,6.376c-2.592,10.737-5.569,21.384-8.59,32.011C333.847,271.345,332.367,272.093,331.431,272.996z
			 M385.192,295.154c8.312-2.111,18.869-19.003,18.614-28.312c-0.09-3.287-2.497-7.213-5.06-9.466
			c-1.545-1.358-7.706-0.586-7.875,0.14c-0.821,3.53-0.088,7.384-0.344,11.092c-0.324,4.704-0.822,9.426-1.711,14.051
			C388.084,286.475,386.673,290.161,385.192,295.154z M409.362,266.008c0.505,0.189,1.011,0.378,1.516,0.568
			c-0.816-5.646-2.538-11.341-2.237-16.927c0.468-8.673-5.171-8.714-10.658-8.392c-1.811,0.106-3.452,3.299-5.15,5.1
			c-1.492,1.583-2.953,3.193-4.428,4.791c2.456,0.206,4.914,0.583,7.366,0.548c1.247-0.018,2.484-0.777,4.7-1.534
			C403.441,255.456,406.401,260.732,409.362,266.008z M413.171,243.668c1.213-6.188,2.696-13.16,3.723-20.198
			c0.076-0.523-4.214-2.571-4.626-2.14c-4.359,4.553-8.344,9.465-11.748,13.474C405.013,237.952,408.574,240.447,413.171,243.668z
			 M406.601,284.837c-1.166-0.501-2.332-1.003-3.498-1.504c-1.627,3.765-3.254,7.53-4.88,11.295c1.08,0.46,2.16,0.921,3.24,1.381
			C403.176,292.285,404.888,288.561,406.601,284.837z"/>
		<path fill="#737373" d="M97.303,63.212c-3.604,13.086-6.775,24.599-10.002,36.315C79.883,95.167,85.145,75.954,97.303,63.212z"/>
		<path fill="#050505" d="M175.33,303.172c-8.834,4.726-16.621,2.133-21.055-6.229c-0.688-1.298-5.984-1.983-7.224-0.848
			c-5.903,5.401-7.614,6.325-17.657,4.569c3.02-4.063,5.446-7.324,7.871-10.586c2.391-0.522,4.781-1.044,7.172-1.566
			c-0.139-0.921-0.278-1.842-0.417-2.763c-4.925,0.766-9.849,1.533-14.774,2.299c-2.374,0.029-4.748,0.059-7.122,0.088
			c-7.351-14.426-7.181-14.724,8.682-15.005c3.144-0.056,6.29-0.059,9.435-0.086c16.039,6.033,32.375,11.42,47.907,18.556
			c3.836,1.762,5.06,9.209,7.484,14.042c-0.823,0.563-1.646,1.127-2.469,1.69c-1.317-0.739-2.633-1.477-3.95-2.216
			C184.585,304.469,179.958,303.821,175.33,303.172z"/>
		<path fill="#C0C0C0" d="M93.253,415.1c-2.741,0.483-5.481,0.967-8.617,1.52c13.441,1.173,26.583,2.32,39.726,3.466
			c-0.106,0.902-0.212,1.804-0.318,2.706c-10.677-0.975-21.353-1.95-32.03-2.926c-4.99-0.866-9.98-1.733-14.97-2.599
			c-0.623-0.488-1.246-0.976-2.767-2.167C81.386,415.1,87.32,415.1,93.253,415.1z"/>
		<path fill="#353535" d="M77.043,417.267c4.99,0.866,9.98,1.733,14.97,2.599c-5.569,0.084-11.138,0.168-16.706,0.252
			c-4.081,0.261-8.162,0.521-12.244,0.782c-0.098-0.891-0.196-1.782-0.294-2.673C67.528,417.907,72.286,417.587,77.043,417.267z"/>
		<path fill="#3A3A3A" d="M121.243,415.043c-4.358-1.637-8.716-3.275-13.074-4.912c1.335-0.598,2.976-2.017,3.954-1.653
			c4.724,1.755,9.27,3.991,13.496,7.225C124.16,415.483,122.701,415.263,121.243,415.043z"/>
		<path fill="#4D4D4D" d="M164.983,424.157c1.693,0.662,3.386,1.324,5.079,1.987c0.936,1.019,1.872,2.038,3.497,3.808
			c-6.12-1.906-11.194-3.486-16.267-5.066C159.856,424.643,162.419,424.4,164.983,424.157z"/>
		<path fill="#010101" d="M223.247,385.054c8.08-1.743,16.177-4.922,24.236-4.828c8.112,0.094,10.025-3.77,11.09-9.955
			c0.383-2.227,0.499-4.5,2.41-7.02c1.497,7.169,3.498,14.291,4.177,21.536c0.196,2.096-3.318,4.626-5.314,6.788
			c-0.601,0.651-1.956,0.544-2.728,1.109c-3.303,2.418-6.518,4.958-9.765,7.453c4.045,2.623,7.912,7.081,12.17,7.493
			c9.175,0.888,18.559-0.654,27.842-0.46c3.345,0.07,7.309,1.491,9.821,3.654c4.487,3.863,8.085,8.758,12.055,13.221
			c3.249,5.713,6.499,11.426,9.748,17.139c4.735,15.043-1.003,27.097-12.156,36.331c-10.145,8.399-19.556,19.058-34.643,18.614
			c-4.236-2.848-8.367-5.872-12.74-8.493c-4.01-2.404-5.51-5.257-2.997-9.544c4.802-5.306,9.667-10.557,14.374-15.946
			c1.852-2.121,3.35-4.55,5.01-6.839c-3.197-0.105-6.394-0.21-9.592-0.315c-15.611,5.871-30.964,5.678-46-1.955l0.007,0.003
			c-8.232-4.343-16.505-8.611-24.643-13.124c-1.041-0.577-1.376-2.427-2.038-3.687c8.227,2.283,16.327,5.358,24.705,6.704
			c28.569,4.592,54.515-8.856,82.253-12.336c-1.533-7.576-6.646-8.393-12.517-7.446c-15.193,2.45-30.495,4.454-45.502,7.771
			c-18.245,4.032-35.221,1.858-51.69-6.748c-1.519-0.794-4.414,1.049-6.671,1.667c-2.106,1.188-4.76,3.789-6.189,3.234
			c-2.163-0.84-5.202-4.351-4.783-5.881c0.852-3.108,3.65-5.753,5.9-8.37c0.756-0.879,2.283-1.096,3.457-1.616
			c8.78-2.495,16.976-5.697,19.629-15.584c-4.198-2.18-8.017-4.163-13.829-7.181c3.547-0.244,4.729-0.325,5.911-0.406
			C203.76,397.367,218.065,394.911,223.247,385.054z M241.71,427.224c-15.778-10.113-32.094-10.066-35.11,0
			C218.644,427.224,230.177,427.224,241.71,427.224z"/>
		<path fill="#CBCBCB" d="M318.989,441.183c-3.249-5.713-6.499-11.426-9.748-17.139c2.637-5.892,6.452-11.569,7.58-17.737
			c1.132-6.188,0.609-13.134-0.996-19.275c-3.659-14,4.003-22.548,11.889-32.47c7.973-10.031,12.729-22.554,19.791-33.401
			c3.861-5.93,9.58-10.649,15.85-17.413c-0.43,9.307-0.776,16.791-1.122,24.275c-5.965,17.059-11.82,34.158-17.994,51.141
			c-1.161,3.193-2.991,6.706-5.569,8.71c-6.574,5.111-5.713,11.883-5.105,18.609c0.068,0.75,3.957,2.262,4.809,1.652
			c5.342-3.823,10.326-8.147,16.213-12.945c0,1.87,0.293,2.991-0.043,3.871c-6.694,17.497-14.144,34.487-29.843,46.238
			c-1.513,1.133-1.89,3.785-1.287,6.598c3.65-3.258,7.3-6.516,10.95-9.774c-3.708,4.23-7.417,8.459-11.522,13.141
			C321.305,449.648,320.147,445.416,318.989,441.183z"/>
		<path fill="#FBFBFB" d="M184.148,425.839c2.256-0.618,5.152-2.46,6.671-1.667c16.469,8.605,33.444,10.78,51.69,6.748
			c15.007-3.317,30.309-5.321,45.502-7.771c5.872-0.947,10.984-0.129,12.517,7.446c-27.737,3.481-53.684,16.928-82.253,12.336
			c-8.378-1.347-16.478-4.421-24.705-6.704C187.694,435.245,181.165,434.856,184.148,425.839z"/>
		<path fill="#FBFBFB" d="M266.245,454.99c3.197,0.105,6.394,0.21,9.592,0.315c-1.659,2.289-3.158,4.719-5.01,6.839
			c-4.707,5.389-9.572,10.64-14.374,15.946c-6.978,7.105-9.938,0.809-13.342-4.001c-3.885-2.642-7.77-5.285-11.655-7.927
			c-4.951-3.433-9.901-6.865-16.187-11.224c2.663-1.015,3.824-1.458,4.984-1.9l-0.007-0.003
			C229.356,461.9,256.061,463.035,266.245,454.99z"/>
		<path fill="#272727" d="M164.873,444.859c15.793,9.259,31.586,18.517,47.379,27.776
			C193.417,468.53,176.548,461.05,164.873,444.859z"/>
		<path fill="#B2B2B2" d="M50.316,446.174c5.625-1.357,11.223-3.714,16.88-3.868c12.463-0.338,24.958,0.373,37.434,0.815
			c2.326,0.082,4.626,0.91,8.487,1.718c-20.49,1.812-39.235,3.471-57.981,5.129c8.488-1.683,16.975-3.367,25.463-5.05
			c-0.088-0.765-0.175-1.531-0.263-2.296C70.329,443.806,60.322,444.99,50.316,446.174z"/>
		<path fill="#121212" d="M50.316,446.174c10.007-1.184,20.013-2.368,30.02-3.552c0.088,0.765,0.175,1.531,0.263,2.296
			c-8.488,1.683-16.975,3.367-25.463,5.05c-2.948,1.036-5.897,2.072-8.845,3.108c-0.832,0-1.663,0-2.548,0
			c0.892-1.309,1.6-2.347,2.308-3.385C47.472,448.519,48.894,447.346,50.316,446.174z"/>
		<path fill="#434343" d="M195.101,451.11c11.045,6.654,22.09,13.308,33.135,19.962c-0.395,0.709-0.789,1.419-1.184,2.128
			c-10.99-6.619-21.979-13.238-32.969-19.857C194.423,452.599,194.762,451.855,195.101,451.11z"/>
		<path fill="#8B8B8B" d="M64.183,428.996c13.621,0,27.242,0,40.863,0c0.007,0.999,0.014,1.997,0.021,2.996
			c-13.943,0-27.887,0-41.83,0c2.798-0.534,5.597-1.068,8.395-1.602c-0.005-0.339-0.011-0.678-0.016-1.018
			C69.138,429.248,66.66,429.122,64.183,428.996z"/>
		<path fill="#565656" d="M159.405,433.029c-8.339-1.23-16.469-2.429-24.006-3.541C140.708,424.704,153.061,426.148,159.405,433.029
			z"/>
		<path fill="#525252" d="M149.453,447.395c-6.692-2.019-13.998-4.223-20.349-6.139C134.798,437.06,145.754,440.146,149.453,447.395
			z"/>
		<path fill="#555555" d="M64.183,428.996c2.478,0.126,4.955,0.251,7.433,0.377c0.005,0.339,0.011,0.678,0.016,1.018
			c-2.798,0.534-5.597,1.068-8.395,1.602c-4.258,0.882-8.517,1.764-12.775,2.646c-0.195-0.722-0.39-1.445-0.585-2.167
			C54.645,431.313,59.414,430.155,64.183,428.996z"/>
		<path fill="#6C6C6C" d="M195.101,451.11c-0.339,0.744-0.678,1.489-1.017,2.233c-5.631-3.66-11.261-7.319-16.892-10.979
			c0.379-0.633,0.758-1.265,1.138-1.898C183.92,444.015,189.51,447.563,195.101,451.11z"/>
		<path fill="#474747" d="M46.05,449.691c-0.708,1.038-1.415,2.076-2.308,3.385c0.885,0,1.716,0,2.548,0
			c-4.329,2.367-8.658,4.734-12.988,7.102c-0.389-0.743-0.777-1.485-1.166-2.228C36.774,455.197,41.412,452.444,46.05,449.691z"/>
		<path fill="#717171" d="M231.456,466.162c3.885,2.642,7.77,5.285,11.655,7.927C239.226,471.446,235.341,468.804,231.456,466.162z"
			/>
		<path fill="#484848" d="M58.19,479.018c-1.997,0.998-3.994,1.996-5.992,2.995c1.294-2.776,2.589-5.552,4.071-8.73
			c2.224,1.402,4.155,2.619,7.103,4.478C60.787,478.388,59.489,478.703,58.19,479.018z"/>
		<path fill="#707070" d="M227.053,473.201c0.395-0.709,0.789-1.419,1.184-2.128c4.206,2.359,8.411,4.717,12.617,7.076
			c-0.353,0.666-0.706,1.332-1.059,1.999C235.547,477.831,231.3,475.516,227.053,473.201z"/>
		<path fill="#949494" d="M32.136,457.949c0.389,0.743,0.777,1.485,1.166,2.228c-3.908,2.153-7.817,4.305-11.725,6.458
			c-0.356-0.586-0.712-1.171-1.068-1.757C24.385,462.569,28.26,460.259,32.136,457.949z"/>
		<path fill="#060606" d="M264.32,270.199c18.143-6.2,36.73-5.685,55.551-4.528c9.261,0.57,12.582,3.352,9.231,12.303
			c-13.099,27.599-48.165,43.581-68.664,31.244c6.125-0.748,12.548-0.524,18.191-2.511c5.417-1.908,10.195-5.888,14.874-9.456
			c1.181-0.9,0.912-3.703,1.309-5.631c-2.553-0.049-6.089-1.214-7.504,0.031c-10.895,9.589-10.702,9.65-22.461,0.618
			c-1-0.768-4.023,0.046-5.429,1.062c-3.6,2.601-6.818,5.732-10.188,8.65c-8.208,0.935-16.415,1.871-25.506,2.907
			c0,4.015,0,9.572,0,15.128c-0.197-0.021-0.394-0.041-0.592-0.062c-0.912-7.055-1.824-14.11-2.737-21.165
			c-2.126-9.062,4.161-12.555,10.688-15.338C242.052,278.776,253.23,274.591,264.32,270.199z M317.245,288.098
			c2.215-1.872,4.43-3.743,7.412-6.263c-2.323-0.78-3.088-1.276-3.838-1.254c-22.581,0.655-45.171,1.146-67.731,2.253
			c-4.207,0.207-8.292,2.919-12.433,4.475c0.227,0.242,0.453,0.484,0.68,0.726c17.302-1.635,34.604-3.27,51.907-4.906
			c1.916,0.927,4.357,1.39,5.657,2.862C304.502,292.331,310.731,290.95,317.245,288.098z"/>
		<path fill="#CBCBCB" d="M220.396,298.789c0.912,7.055,1.824,14.11,2.737,21.165c0.197,0.021,0.394,0.041,0.592,0.062
			c0-5.556,0-11.113,0-15.128c9.091-1.036,17.299-1.972,25.506-2.907c-6.779,1.711-13.559,3.421-18.811,4.746
			c2.199,12.435,3.76,25.191,7.178,37.428c0.722,2.586,8.164,3.591,12.667,4.662c1.529,0.364,3.543-1.309,6.248-2.428
			c0,4.082,0,7.309,0,9.168c-6.584,0.565-12.823,0.378-18.67,1.801c-5.997,1.459-11.611,4.492-18.239,7.18
			c1.306-4.643,3.473-8.689,3.377-12.681c-0.314-13.059-1.499-26.096-2.246-39.148C220.47,308.078,220.5,303.43,220.396,298.789z"/>
		<path fill="#3C3C3C" d="M144.946,309.375c7.09,0,14.053,0,21.801,0C160.225,316.31,149.259,315.728,144.946,309.375z"/>
		<path fill="#454545" d="M223.247,385.054c-5.182,9.857-19.486,12.313-29.003,4.98
			C204.875,393.984,214.847,394.096,223.247,385.054z"/>
		<path fill="#8C8C8C" d="M129.246,288.049c4.924-0.766,9.849-1.533,14.774-2.299c0.139,0.921,0.278,1.842,0.417,2.763
			c-2.391,0.522-4.781,1.044-7.172,1.566c1.066-0.727,2.133-1.455,4.368-2.979C136.693,287.478,132.97,287.764,129.246,288.049z"/>
		<path fill="#636363" d="M175.33,303.172c4.628,0.648,9.256,1.296,13.883,1.945C184.585,304.469,179.958,303.821,175.33,303.172z"
			/>
		<path fill="#151515" d="M385.192,295.154c1.481-4.992,2.892-8.678,3.625-12.494c0.889-4.625,1.387-9.347,1.711-14.051
			c0.255-3.709-0.477-7.562,0.344-11.092c0.169-0.726,6.33-1.498,7.875-0.14c2.563,2.253,4.97,6.179,5.06,9.466
			C404.062,276.151,393.504,293.042,385.192,295.154z"/>
		<path fill="#FEFEFE" d="M409.362,266.008c-2.96-5.276-5.921-10.552-8.891-15.846c-2.216,0.757-3.453,1.516-4.7,1.534
			c-2.452,0.035-4.91-0.342-7.366-0.548c1.475-1.598,2.937-3.209,4.428-4.791c1.698-1.801,3.339-4.994,5.15-5.1
			c5.487-0.322,11.126-0.281,10.658,8.392c-0.301,5.586,1.421,11.281,2.237,16.927C410.373,266.386,409.867,266.197,409.362,266.008
			z"/>
		<path fill="#262626" d="M413.171,243.668c-4.596-3.221-8.158-5.716-12.651-8.864c3.404-4.009,7.389-8.921,11.748-13.474
			c0.412-0.431,4.702,1.617,4.626,2.14C415.867,230.508,414.384,237.48,413.171,243.668z"/>
		<path fill="#FEFEFE" d="M406.601,284.837c-1.713,3.724-3.425,7.448-5.138,11.172c-1.08-0.46-2.16-0.921-3.24-1.381
			c1.627-3.765,3.254-7.53,4.88-11.295C404.269,283.834,405.435,284.336,406.601,284.837z"/>
		<path fill="#F3F3F3" d="M241.71,427.224c-11.533,0-23.066,0-35.11,0C209.615,417.159,225.932,417.111,241.71,427.224z"/>
		<path fill="#E7E7E7" d="M266.245,454.99c-10.184,8.045-36.889,6.91-46-1.955C235.282,460.668,250.634,460.861,266.245,454.99z"/>
		<path fill="#D0D0D0" d="M293.242,283.13c-17.302,1.635-34.604,3.27-51.907,4.906c-0.227-0.242-0.453-0.484-0.68-0.726
			c4.141-1.556,8.225-4.269,12.433-4.475c22.56-1.107,45.15-1.598,67.731-2.253c0.75-0.022,1.515,0.474,3.838,1.254
			c-2.983,2.52-5.197,4.392-7.412,6.263c1.252-1.656,2.505-3.313,4.65-6.15c-15.56,0-29.888,0-44.216,0
			c0.001-0.173,0.002-0.345,0.003-0.518C282.869,281.997,288.055,282.563,293.242,283.13z"/>
		<path fill="#F6F6F6" d="M293.242,283.13c-5.187-0.567-10.374-1.133-15.56-1.7c-0.001,0.173-0.002,0.345-0.003,0.518
			c14.328,0,28.656,0,44.216,0c-2.145,2.837-3.397,4.493-4.65,6.15c-6.514,2.852-12.743,4.233-18.346-2.106
			C297.599,284.52,295.158,284.057,293.242,283.13z"/>
	</g>
</g>
</svg>
